REM DIRINDEX 1\2,1\3,1\4
REM DIRNAME folder01,folder02,folder03,folder04
TITLE ""
FILE "083 083_TOEFL_3900.mp3" MP3
  TRACK 01 AUDIO
    TITLE "2:cjc151_3604"
    INDEX 01 00:00:00
  TRACK 02 AUDIO
    TITLE "0:"
    INDEX 01 00:01:05
  TRACK 03 AUDIO
    TITLE "3:cjc151_3605"
    INDEX 01 00:02:57
  TRACK 04 AUDIO
    TITLE "0:"
    INDEX 01 00:06:73
  TRACK 05 AUDIO
    TITLE "2:cjc151_3606"
    INDEX 01 00:08:50
  TRACK 06 AUDIO
    TITLE "0:"
    INDEX 01 00:09:42
  TRACK 07 AUDIO
    TITLE "3:cjc151_3607"
    INDEX 01 00:11:19
  TRACK 08 AUDIO
    TITLE "0:"
    INDEX 01 00:14:41
  TRACK 09 AUDIO
    TITLE "2:cjc151_3608"
    INDEX 01 00:16:20
  TRACK 10 AUDIO
    TITLE "0:"
    INDEX 01 00:17:27
  TRACK 11 AUDIO
    TITLE "3:cjc151_3609"
    INDEX 01 00:19:05
  TRACK 12 AUDIO
    TITLE "0:"
    INDEX 01 00:22:48
  TRACK 13 AUDIO
    TITLE "2:cjc151_3610"
    INDEX 01 00:24:27
  TRACK 14 AUDIO
    TITLE "0:"
    INDEX 01 00:25:27
  TRACK 15 AUDIO
    TITLE "3:cjc151_3611"
    INDEX 01 00:27:00
  TRACK 16 AUDIO
    TITLE "0:"
    INDEX 01 00:30:30
  TRACK 17 AUDIO
    TITLE "2:cjc151_3612"
    INDEX 01 00:32:09
  TRACK 18 AUDIO
    TITLE "0:"
    INDEX 01 00:33:07
  TRACK 19 AUDIO
    TITLE "3:cjc151_3613"
    INDEX 01 00:34:59
  TRACK 20 AUDIO
    TITLE "0:"
    INDEX 01 00:39:02
  TRACK 21 AUDIO
    TITLE "2:cjc151_3614"
    INDEX 01 00:40:54
  TRACK 22 AUDIO
    TITLE "0:"
    INDEX 01 00:41:61
  TRACK 23 AUDIO
    TITLE "3:cjc151_3615"
    INDEX 01 00:43:40
  TRACK 24 AUDIO
    TITLE "0:"
    INDEX 01 00:46:47
  TRACK 25 AUDIO
    TITLE "2:cjc151_3616"
    INDEX 01 00:48:24
  TRACK 26 AUDIO
    TITLE "0:"
    INDEX 01 00:49:35
  TRACK 27 AUDIO
    TITLE "3:cjc151_3617"
    INDEX 01 00:51:15
  TRACK 28 AUDIO
    TITLE "0:"
    INDEX 01 00:55:28
  TRACK 29 AUDIO
    TITLE "2:cjc151_3618"
    INDEX 01 00:57:07
  TRACK 30 AUDIO
    TITLE "0:"
    INDEX 01 00:58:13
  TRACK 31 AUDIO
    TITLE "3:cjc151_3619"
    INDEX 01 00:59:69
  TRACK 32 AUDIO
    TITLE "0:"
    INDEX 01 01:02:67
  TRACK 33 AUDIO
    TITLE "2:cjc151_3620"
    INDEX 01 01:04:47
  TRACK 34 AUDIO
    TITLE "0:"
    INDEX 01 01:05:73
  TRACK 35 AUDIO
    TITLE "3:cjc151_3621"
    INDEX 01 01:07:53
  TRACK 36 AUDIO
    TITLE "0:"
    INDEX 01 01:11:27
  TRACK 37 AUDIO
    TITLE "2:cjc151_3622"
    INDEX 01 01:13:04
  TRACK 38 AUDIO
    TITLE "0:"
    INDEX 01 01:14:06
  TRACK 39 AUDIO
    TITLE "3:cjc151_3623"
    INDEX 01 01:15:60
  TRACK 40 AUDIO
    TITLE "0:"
    INDEX 01 01:19:34
  TRACK 41 AUDIO
    TITLE "2:cjc151_3624"
    INDEX 01 01:21:31
  TRACK 42 AUDIO
    TITLE "0:"
    INDEX 01 01:22:50
  TRACK 43 AUDIO
    TITLE "3:cjc151_3625"
    INDEX 01 01:24:30
  TRACK 44 AUDIO
    TITLE "0:"
    INDEX 01 01:28:51
  TRACK 45 AUDIO
    TITLE "2:cjc151_3626"
    INDEX 01 01:30:30
  TRACK 46 AUDIO
    TITLE "0:"
    INDEX 01 01:31:43
  TRACK 47 AUDIO
    TITLE "3:cjc151_3627"
    INDEX 01 01:33:23
  TRACK 48 AUDIO
    TITLE "0:"
    INDEX 01 01:37:48
  TRACK 49 AUDIO
    TITLE "2:cjc151_3628"
    INDEX 01 01:39:27
  TRACK 50 AUDIO
    TITLE "0:"
    INDEX 01 01:40:54
  TRACK 51 AUDIO
    TITLE "3:cjc151_3629"
    INDEX 01 01:42:30
  TRACK 52 AUDIO
    TITLE "0:"
    INDEX 01 01:46:43
  TRACK 53 AUDIO
    TITLE "2:cjc151_3630"
    INDEX 01 01:48:24
  TRACK 54 AUDIO
    TITLE "0:"
    INDEX 01 01:49:35
  TRACK 55 AUDIO
    TITLE "3:cjc151_3631"
    INDEX 01 01:51:15
  TRACK 56 AUDIO
    TITLE "0:"
    INDEX 01 01:55:58
  TRACK 57 AUDIO
    TITLE "2:cjc151_3632"
    INDEX 01 01:57:37
  TRACK 58 AUDIO
    TITLE "0:"
    INDEX 01 01:58:38
  TRACK 59 AUDIO
    TITLE "3:cjc151_3633"
    INDEX 01 02:00:18
  TRACK 60 AUDIO
    TITLE "0:"
    INDEX 01 02:04:29
  TRACK 61 AUDIO
    TITLE "2:cjc151_3634"
    INDEX 01 02:06:06
  TRACK 62 AUDIO
    TITLE "0:"
    INDEX 01 02:07:06
  TRACK 63 AUDIO
    TITLE "3:cjc151_3635"
    INDEX 01 02:08:54
  TRACK 64 AUDIO
    TITLE "0:"
    INDEX 01 02:12:72
  TRACK 65 AUDIO
    TITLE "2:cjc151_3636"
    INDEX 01 02:14:49
  TRACK 66 AUDIO
    TITLE "0:"
    INDEX 01 02:15:51
  TRACK 67 AUDIO
    TITLE "3:cjc151_3637"
    INDEX 01 02:17:30
  TRACK 68 AUDIO
    TITLE "0:"
    INDEX 01 02:21:49
  TRACK 69 AUDIO
    TITLE "2:cjc151_3638"
    INDEX 01 02:23:36
  TRACK 70 AUDIO
    TITLE "0:"
    INDEX 01 02:24:46
  TRACK 71 AUDIO
    TITLE "3:cjc151_3639"
    INDEX 01 02:26:23
  TRACK 72 AUDIO
    TITLE "0:"
    INDEX 01 02:30:21
  TRACK 73 AUDIO
    TITLE "2:cjc151_3640"
    INDEX 01 02:32:00
  TRACK 74 AUDIO
    TITLE "0:"
    INDEX 01 02:33:09
  TRACK 75 AUDIO
    TITLE "3:cjc151_3641"
    INDEX 01 02:34:64
  TRACK 76 AUDIO
    TITLE "0:"
    INDEX 01 02:39:14
  TRACK 77 AUDIO
    TITLE "2:cjc151_3642"
    INDEX 01 02:40:66
  TRACK 78 AUDIO
    TITLE "0:"
    INDEX 01 02:41:68
  TRACK 79 AUDIO
    TITLE "3:cjc151_3643"
    INDEX 01 02:43:47
  TRACK 80 AUDIO
    TITLE "0:"
    INDEX 01 02:46:59
  TRACK 81 AUDIO
    TITLE "2:cjc151_3644"
    INDEX 01 02:48:44
  TRACK 82 AUDIO
    TITLE "0:"
    INDEX 01 02:49:67
  TRACK 83 AUDIO
    TITLE "3:cjc151_3645"
    INDEX 01 02:51:42
  TRACK 84 AUDIO
    TITLE "0:"
    INDEX 01 02:55:60
  TRACK 85 AUDIO
    TITLE "2:cjc151_3646"
    INDEX 01 02:57:39
  TRACK 86 AUDIO
    TITLE "0:"
    INDEX 01 02:58:50
  TRACK 87 AUDIO
    TITLE "3:cjc151_3647"
    INDEX 01 03:00:26
  TRACK 88 AUDIO
    TITLE "0:"
    INDEX 01 03:04:10
